<mxfile host="app.diagrams.net" modified="2023-11-12T02:54:03.544Z" agent="Mozilla/5.0 (Windows NT 10.0; Win64; x64) AppleWebKit/537.36 (KHTML, like Gecko) Chrome/119.0.0.0 Safari/537.36" etag="ZxDCVjrs22OehK9Q3W-h" version="22.1.0" type="device">
  <diagram name="Page-1" id="8DdgHT_lzrCupyF-qvgf">
    <mxGraphModel dx="1242" dy="822" grid="1" gridSize="10" guides="1" tooltips="1" connect="1" arrows="1" fold="1" page="1" pageScale="1" pageWidth="1169" pageHeight="827" math="0" shadow="0">
      <root>
        <mxCell id="0" />
        <mxCell id="1" parent="0" />
        <mxCell id="XoGYOiqfx8qt8Q36udEH-1" value="" style="strokeWidth=1;shadow=0;dashed=0;align=left;html=1;shape=mxgraph.mockup.containers.browserWindow;rSize=0;strokeColor=#d6b656;strokeColor2=#008cff;strokeColor3=#c4c4c4;mainText=,;recursiveResize=0;fillColor=#fff2cc;fontColor=#135002;" parent="1" vertex="1">
          <mxGeometry width="1160" height="820" as="geometry" />
        </mxCell>
        <mxCell id="XoGYOiqfx8qt8Q36udEH-2" value="Login" style="strokeWidth=1;shadow=0;dashed=0;align=center;html=1;shape=mxgraph.mockup.containers.anchor;fontSize=17;fontColor=#666666;align=left;whiteSpace=wrap;" parent="XoGYOiqfx8qt8Q36udEH-1" vertex="1">
          <mxGeometry x="60" y="12" width="150" height="26" as="geometry" />
        </mxCell>
        <mxCell id="XoGYOiqfx8qt8Q36udEH-3" value="https://www.hh2023.com" style="strokeWidth=1;shadow=0;dashed=0;align=center;html=1;shape=mxgraph.mockup.containers.anchor;rSize=0;fontSize=17;fontColor=#666666;align=left;" parent="XoGYOiqfx8qt8Q36udEH-1" vertex="1">
          <mxGeometry x="130" y="60" width="250" height="26" as="geometry" />
        </mxCell>
        <mxCell id="XoGYOiqfx8qt8Q36udEH-25" value="&lt;b style=&quot;font-size: 36px;&quot;&gt;&lt;font style=&quot;font-size: 36px;&quot; color=&quot;#ff0000&quot;&gt;HH 2023&lt;/font&gt;&lt;/b&gt;" style="shape=rect;strokeColor=none;fillColor=#333333;fontColor=#FFFFFF;align=left;spacing=16;fontSize=36;spacingLeft=8;whiteSpace=wrap;html=1;fontFamily=Verdana;" parent="XoGYOiqfx8qt8Q36udEH-1" vertex="1">
          <mxGeometry y="110" width="1160" height="70" as="geometry" />
        </mxCell>
        <mxCell id="XoGYOiqfx8qt8Q36udEH-26" value="Welcome Jimmy" style="text;verticalAlign=middle;align=center;fontColor=#EEFF41;fontSize=40;resizeHeight=1;whiteSpace=wrap;html=1;fontFamily=Tahoma;fontStyle=1" parent="XoGYOiqfx8qt8Q36udEH-25" vertex="1">
          <mxGeometry x="1" width="330" height="70" relative="1" as="geometry">
            <mxPoint x="-350" as="offset" />
          </mxGeometry>
        </mxCell>
        <mxCell id="FRqryJ8z9L4HBqqZcY_s-2" value="Office Survey 1" style="text;strokeColor=none;fillColor=none;html=1;fontSize=34;fontStyle=1;verticalAlign=middle;align=center;fontColor=#FFFFCC;" parent="XoGYOiqfx8qt8Q36udEH-25" vertex="1">
          <mxGeometry x="380" y="10" width="280" height="60" as="geometry" />
        </mxCell>
        <mxCell id="FRqryJ8z9L4HBqqZcY_s-4" value="Question:1 " style="fillColor=none;strokeColor=none;align=left;fontSize=51;fontStyle=1;fontColor=#cb0b45;" parent="XoGYOiqfx8qt8Q36udEH-1" vertex="1">
          <mxGeometry x="55" y="240" width="300" height="70" as="geometry" />
        </mxCell>
        <mxCell id="PxVwpIXdglUCgsQqJIbU-3" value="How safe is office?" style="fillColor=none;strokeColor=none;align=left;fontSize=81;fontStyle=1;fontColor=#000099;" parent="XoGYOiqfx8qt8Q36udEH-1" vertex="1">
          <mxGeometry x="385" y="230" width="670" height="80" as="geometry" />
        </mxCell>
        <mxCell id="PxVwpIXdglUCgsQqJIbU-23" value="PREVIOUS QUESTION" style="rounded=1;fillColor=#6a00ff;strokeColor=#3700CC;html=1;whiteSpace=wrap;fontColor=#ffffff;align=center;verticalAlign=middle;fontStyle=1;fontSize=44;sketch=0;" parent="XoGYOiqfx8qt8Q36udEH-1" vertex="1">
          <mxGeometry x="60" y="640" width="302" height="143" as="geometry" />
        </mxCell>
        <mxCell id="y-gj6X7WhvUrTZZkrb7H-20" value="NEXT&lt;br&gt;QUESTION" style="rounded=1;fillColor=#6a00ff;strokeColor=#3700CC;html=1;whiteSpace=wrap;fontColor=#ffffff;align=center;verticalAlign=middle;fontStyle=1;fontSize=44;sketch=0;" vertex="1" parent="XoGYOiqfx8qt8Q36udEH-1">
          <mxGeometry x="789" y="640" width="302" height="143" as="geometry" />
        </mxCell>
        <mxCell id="y-gj6X7WhvUrTZZkrb7H-31" value="Answer: " style="align=left;fontSize=51;fontStyle=1;fillColor=none;fontColor=#005218;strokeColor=none;" vertex="1" parent="XoGYOiqfx8qt8Q36udEH-1">
          <mxGeometry x="55" y="350" width="240" height="70" as="geometry" />
        </mxCell>
        <mxCell id="y-gj6X7WhvUrTZZkrb7H-32" value="VERY SAFE" style="strokeWidth=1;shadow=0;dashed=0;align=center;html=1;shape=mxgraph.mockup.forms.pwField;strokeColor=#999999;mainText=;align=left;fontColor=#135002;fontSize=52;spacingLeft=3;fontStyle=1" vertex="1" parent="XoGYOiqfx8qt8Q36udEH-1">
          <mxGeometry x="385" y="350" width="720" height="90" as="geometry" />
        </mxCell>
        <mxCell id="y-gj6X7WhvUrTZZkrb7H-33" value="SAVE" style="rounded=1;fillColor=#008a00;strokeColor=#005700;html=1;whiteSpace=wrap;fontColor=#ffffff;align=center;verticalAlign=middle;fontStyle=1;fontSize=44;sketch=0;" vertex="1" parent="XoGYOiqfx8qt8Q36udEH-1">
          <mxGeometry x="429" y="640" width="302" height="143" as="geometry" />
        </mxCell>
        <mxCell id="y-gj6X7WhvUrTZZkrb7H-34" value="RECORD" style="rounded=1;fillColor=#d80073;strokeColor=#A50040;html=1;whiteSpace=wrap;fontColor=#ffffff;align=center;verticalAlign=middle;fontStyle=1;fontSize=44;sketch=0;" vertex="1" parent="XoGYOiqfx8qt8Q36udEH-1">
          <mxGeometry x="60" y="470" width="302" height="143" as="geometry" />
        </mxCell>
        <mxCell id="y-gj6X7WhvUrTZZkrb7H-36" value="TYPE" style="rounded=1;fillColor=#a20025;strokeColor=#6F0000;html=1;whiteSpace=wrap;fontColor=#ffffff;align=center;verticalAlign=middle;fontStyle=1;fontSize=44;sketch=0;" vertex="1" parent="XoGYOiqfx8qt8Q36udEH-1">
          <mxGeometry x="434" y="470" width="302" height="143" as="geometry" />
        </mxCell>
        <mxCell id="y-gj6X7WhvUrTZZkrb7H-37" value="SIGN" style="rounded=1;fillColor=#6d8764;strokeColor=#3A5431;html=1;whiteSpace=wrap;fontColor=#ffffff;align=center;verticalAlign=middle;fontStyle=1;fontSize=44;sketch=0;" vertex="1" parent="XoGYOiqfx8qt8Q36udEH-1">
          <mxGeometry x="789" y="470" width="302" height="143" as="geometry" />
        </mxCell>
      </root>
    </mxGraphModel>
  </diagram>
</mxfile>
